<mxfile>
    <diagram id="PsWloLuS4eta1srbE7U4" name="Page-1">
        <mxGraphModel dx="1279" dy="613" grid="1" gridSize="10" guides="1" tooltips="1" connect="1" arrows="1" fold="1" page="1" pageScale="1" pageWidth="850" pageHeight="1100" background="#F4F1DE" math="0" shadow="0">
            <root>
                <mxCell id="0"/>
                <mxCell id="1" parent="0"/>
                <mxCell id="2" value="Posts" style="swimlane;fontStyle=0;childLayout=stackLayout;horizontal=1;startSize=26;horizontalStack=0;resizeParent=1;resizeParentMax=0;resizeLast=0;collapsible=1;marginBottom=0;align=center;fontSize=15;fillColor=none;strokeColor=#E07A5F;fontColor=#393C56;" vertex="1" parent="1">
                    <mxGeometry x="460" y="430" width="250" height="240" as="geometry"/>
                </mxCell>
                <mxCell id="3" value="UserProfile:&#10;&#10;Title:&#10;&#10;Content:&#10;&#10;Comments:&#10;&#10;Image:" style="text;strokeColor=none;fillColor=none;spacingLeft=4;spacingRight=4;overflow=hidden;rotatable=0;points=[[0,0.5],[1,0.5]];portConstraint=eastwest;fontSize=15;fontColor=#393C56;" vertex="1" parent="2">
                    <mxGeometry y="26" width="250" height="214" as="geometry"/>
                </mxCell>
                <mxCell id="4" value="UserProfile" style="swimlane;fontStyle=0;childLayout=stackLayout;horizontal=1;startSize=26;horizontalStack=0;resizeParent=1;resizeParentMax=0;resizeLast=0;collapsible=1;marginBottom=0;align=center;fontSize=15;fillColor=none;labelBackgroundColor=#F4F1DE;strokeColor=#E07A5F;fontColor=#393C56;" vertex="1" parent="1">
                    <mxGeometry x="80" y="150" width="300" height="210" as="geometry"/>
                </mxCell>
                <mxCell id="5" value="Name:&#10;&#10;Current City:&#10;&#10;Join Date:&#10;&#10;Image:&#10;&#10;&#10;" style="text;strokeColor=none;fillColor=none;spacingLeft=4;spacingRight=4;overflow=hidden;rotatable=0;points=[[0,0.5],[1,0.5]];portConstraint=eastwest;fontSize=15;fontColor=#393C56;" vertex="1" parent="4">
                    <mxGeometry y="26" width="300" height="184" as="geometry"/>
                </mxCell>
                <mxCell id="6" value="" style="edgeStyle=entityRelationEdgeStyle;fontSize=12;html=1;endArrow=ERoneToMany;exitX=0.269;exitY=1;exitDx=0;exitDy=0;exitPerimeter=0;entryX=-0.009;entryY=0.867;entryDx=0;entryDy=0;entryPerimeter=0;fontColor=#393C56;fillColor=none;labelBackgroundColor=#F4F1DE;strokeColor=#E07A5F;" edge="1" parent="1" source="5">
                    <mxGeometry width="100" height="100" relative="1" as="geometry">
                        <mxPoint x="160" y="490" as="sourcePoint"/>
                        <mxPoint x="457.75" y="482.01" as="targetPoint"/>
                    </mxGeometry>
                </mxCell>
                <mxCell id="7" value="Comments" style="swimlane;fontStyle=0;childLayout=stackLayout;horizontal=1;startSize=26;horizontalStack=0;resizeParent=1;resizeParentMax=0;resizeLast=0;collapsible=1;marginBottom=0;align=center;fontSize=15;fillColor=none;strokeColor=#E07A5F;fontColor=#393C56;" vertex="1" parent="1">
                    <mxGeometry x="10" y="860" width="230" height="116" as="geometry"/>
                </mxCell>
                <mxCell id="8" value="Item 1" style="text;strokeColor=none;fillColor=none;spacingLeft=4;spacingRight=4;overflow=hidden;rotatable=0;points=[[0,0.5],[1,0.5]];portConstraint=eastwest;fontSize=15;fontColor=#393C56;" vertex="1" parent="7">
                    <mxGeometry y="26" width="230" height="30" as="geometry"/>
                </mxCell>
                <mxCell id="9" value="Item 2" style="text;strokeColor=none;fillColor=none;spacingLeft=4;spacingRight=4;overflow=hidden;rotatable=0;points=[[0,0.5],[1,0.5]];portConstraint=eastwest;fontSize=15;fontColor=#393C56;" vertex="1" parent="7">
                    <mxGeometry y="56" width="230" height="30" as="geometry"/>
                </mxCell>
                <mxCell id="10" value="Item 3" style="text;strokeColor=none;fillColor=none;spacingLeft=4;spacingRight=4;overflow=hidden;rotatable=0;points=[[0,0.5],[1,0.5]];portConstraint=eastwest;fontSize=15;fontColor=#393C56;" vertex="1" parent="7">
                    <mxGeometry y="86" width="230" height="30" as="geometry"/>
                </mxCell>
            </root>
        </mxGraphModel>
    </diagram>
</mxfile>